<mxfile host="app.diagrams.net" agent="Mozilla/5.0 (Macintosh; Intel Mac OS X 10.15; rv:137.0) Gecko/20100101 Firefox/137.0" version="26.2.12">
  <diagram name="Страница — 1" id="qBnQoCfTSeyqLCa7kQ3F">
    <mxGraphModel dx="1188" dy="798" grid="1" gridSize="10" guides="1" tooltips="1" connect="1" arrows="1" fold="1" page="1" pageScale="1" pageWidth="827" pageHeight="1169" math="0" shadow="0">
      <root>
        <mxCell id="0" />
        <mxCell id="1" parent="0" />
        <UserObject label="" plantUmlData="{&quot;data&quot;:&quot;@startuml\nleft to right direction\n\nactor Гость\nactor Пользователь\nactor Сервер\n\nrectangle \&quot;Умный дом\&quot; {\n  Гость -- (Зарегистрироваться)\n  Гость -- (Войти в систему)\n\n  Пользователь -- (Управлять устройствами)\n  Пользователь -- (Просмотреть статус устройств)\n  Пользователь -- (Настроить уведомления)\n  Пользователь &lt;. (Зарегистрироваться)\n\n  (Зарегистрироваться) -- Сервер\n  (Войти в систему) -- Сервер\n  (Управлять устройствами) -- Сервер\n  (Просмотреть статус устройств) -- Сервер\n  (Настроить уведомления) -- Сервер\n\n  (Управлять устройствами) .&gt; (Просмотреть статус устройств) : &lt;&lt;include&gt;&gt;\n  (Настроить уведомления) .&gt; (Просмотреть статус устройств) : &lt;&lt;extend&gt;&gt;\n}\n\n@enduml\n\n@enduml&quot;,&quot;format&quot;:&quot;svg&quot;}" id="xk8kpJQIgOadewYWOSPK-1">
          <mxCell style="shape=image;noLabel=1;verticalAlign=top;aspect=fixed;imageAspect=0;image=data:image/svg+xml,PHN2ZyB4bWxucz0iaHR0cDovL3d3dy53My5vcmcvMjAwMC9zdmciIHhtbG5zOnhsaW5rPSJodHRwOi8vd3d3LnczLm9yZy8xOTk5L3hsaW5rIiBjb250ZW50U3R5bGVUeXBlPSJ0ZXh0L2NzcyIgZGF0YS1kaWFncmFtLXR5cGU9IkRFU0NSSVBUSU9OIiBoZWlnaHQ9IjQyMnB4IiBwcmVzZXJ2ZUFzcGVjdFJhdGlvPSJub25lIiBzdHlsZT0id2lkdGg6NTUxcHg7aGVpZ2h0OjQyMnB4O2JhY2tncm91bmQ6I0ZGRkZGRjsiIHZlcnNpb249IjEuMSIgdmlld0JveD0iMCAwIDU1MSA0MjIiIHdpZHRoPSI1NTFweCIgem9vbUFuZFBhbj0ibWFnbmlmeSI+PGRlZnMvPjxnPjwhLS1jbHVzdGVyID8/Pz8/ID8/Py0tPjxnIGNsYXNzPSJjbHVzdGVyIiBkYXRhLWVudGl0eT0iJiMxMDU5OyYjMTA4NDsmIzEwODU7JiMxMDk5OyYjMTA4MTsgJiMxMDc2OyYjMTA4NjsmIzEwODQ7IiBkYXRhLXNvdXJjZS1saW5lPSI3IiBkYXRhLXVpZD0iZW50MDAwNSIgaWQ9ImNsdXN0ZXJfJiMxMDU5OyYjMTA4NDsmIzEwODU7JiMxMDk5OyYjMTA4MTsgJiMxMDc2OyYjMTA4NjsmIzEwODQ7Ij48cmVjdCBmaWxsPSJub25lIiBoZWlnaHQ9IjQwOSIgcng9IjIuNSIgcnk9IjIuNSIgc3R5bGU9InN0cm9rZTojMTgxODE4O3N0cm9rZS13aWR0aDoxOyIgd2lkdGg9IjI1OSIgeD0iMTk2IiB5PSI3Ii8+PHRleHQgZmlsbD0iIzAwMDAwMCIgZm9udC1mYW1pbHk9InNhbnMtc2VyaWYiIGZvbnQtc2l6ZT0iMTQiIGZvbnQtd2VpZ2h0PSJib2xkIiBsZW5ndGhBZGp1c3Q9InNwYWNpbmciIHRleHRMZW5ndGg9IjYzIiB4PSIyOTQiIHk9IjIyLjIzNDQiPiYjMTA1OTsmIzEwODQ7JiMxMDg1OyYjMTA5OTsmIzEwODE7ICYjMTA3NjsmIzEwODY7JiMxMDg0OzwvdGV4dD48L2c+PGcgY2xhc3M9ImVudGl0eSIgZGF0YS1lbnRpdHk9IiYjMTA0NzsmIzEwNzI7JiMxMDg4OyYjMTA3NzsmIzEwNzU7JiMxMDgwOyYjMTA4OTsmIzEwOTA7JiMxMDg4OyYjMTA4MDsmIzEwODg7JiMxMDg2OyYjMTA3NDsmIzEwNzI7JiMxMDkwOyYjMTEwMDsmIzEwODk7JiMxMTAzOyIgZGF0YS1zb3VyY2UtbGluZT0iOCIgZGF0YS11aWQ9ImVudDAwMDYiIGlkPSJlbnRpdHlfJiMxMDQ3OyYjMTA3MjsmIzEwODg7JiMxMDc3OyYjMTA3NTsmIzEwODA7JiMxMDg5OyYjMTA5MDsmIzEwODg7JiMxMDgwOyYjMTA4ODsmIzEwODY7JiMxMDc0OyYjMTA3MjsmIzEwOTA7JiMxMTAwOyYjMTA4OTsmIzExMDM7Ij48ZWxsaXBzZSBjeD0iMzI1LjUxMzIiIGN5PSIzMTIuMjAyNiIgZmlsbD0iI0YxRjFGMSIgcng9IjgxLjUxMzIiIHJ5PSIxOC43MDI2IiBzdHlsZT0ic3Ryb2tlOiMxODE4MTg7c3Ryb2tlLXdpZHRoOjAuNTsiLz48dGV4dCBmaWxsPSIjMDAwMDAwIiBmb250LWZhbWlseT0ic2Fucy1zZXJpZiIgZm9udC1zaXplPSIxNCIgbGVuZ3RoQWRqdXN0PSJzcGFjaW5nIiB0ZXh0TGVuZ3RoPSIxMjYiIHg9IjI2Mi41MTMyIiB5PSIzMTUuOTQ0OCI+JiMxMDQ3OyYjMTA3MjsmIzEwODg7JiMxMDc3OyYjMTA3NTsmIzEwODA7JiMxMDg5OyYjMTA5MDsmIzEwODg7JiMxMDgwOyYjMTA4ODsmIzEwODY7JiMxMDc0OyYjMTA3MjsmIzEwOTA7JiMxMTAwOyYjMTA4OTsmIzExMDM7PC90ZXh0PjwvZz48ZyBjbGFzcz0iZW50aXR5IiBkYXRhLWVudGl0eT0iJiMxMDQyOyYjMTA4NjsmIzEwODE7JiMxMDkwOyYjMTA4MDsgJiMxMDc0OyAmIzEwODk7JiMxMDgwOyYjMTA4OTsmIzEwOTA7JiMxMDc3OyYjMTA4NDsmIzEwOTE7IiBkYXRhLXNvdXJjZS1saW5lPSI5IiBkYXRhLXVpZD0iZW50MDAwOCIgaWQ9ImVudGl0eV8mIzEwNDI7JiMxMDg2OyYjMTA4MTsmIzEwOTA7JiMxMDgwOyAmIzEwNzQ7ICYjMTA4OTsmIzEwODA7JiMxMDg5OyYjMTA5MDsmIzEwNzc7JiMxMDg0OyYjMTA5MTsiPjxlbGxpcHNlIGN4PSIzMjUuNDY2MyIgY3k9IjM4Mi44OTMzIiBmaWxsPSIjRjFGMUYxIiByeD0iNzIuNDY2MyIgcnk9IjE2Ljg5MzMiIHN0eWxlPSJzdHJva2U6IzE4MTgxODtzdHJva2Utd2lkdGg6MC41OyIvPjx0ZXh0IGZpbGw9IiMwMDAwMDAiIGZvbnQtZmFtaWx5PSJzYW5zLXNlcmlmIiBmb250LXNpemU9IjE0IiBsZW5ndGhBZGp1c3Q9InNwYWNpbmciIHRleHRMZW5ndGg9IjEwNSIgeD0iMjcyLjk2NjMiIHk9IjM4Ni42MzU1Ij4mIzEwNDI7JiMxMDg2OyYjMTA4MTsmIzEwOTA7JiMxMDgwOyAmIzEwNzQ7ICYjMTA4OTsmIzEwODA7JiMxMDg5OyYjMTA5MDsmIzEwNzc7JiMxMDg0OyYjMTA5MTs8L3RleHQ+PC9nPjxnIGNsYXNzPSJlbnRpdHkiIGRhdGEtZW50aXR5PSImIzEwNTk7JiMxMDg3OyYjMTA4ODsmIzEwNzI7JiMxMDc0OyYjMTA4MzsmIzExMDM7JiMxMDkwOyYjMTEwMDsgJiMxMDkxOyYjMTA4OTsmIzEwOTA7JiMxMDg4OyYjMTA4NjsmIzEwODE7JiMxMDg5OyYjMTA5MDsmIzEwNzQ7JiMxMDcyOyYjMTA4NDsmIzEwODA7IiBkYXRhLXNvdXJjZS1saW5lPSIxMSIgZGF0YS11aWQ9ImVudDAwMTAiIGlkPSJlbnRpdHlfJiMxMDU5OyYjMTA4NzsmIzEwODg7JiMxMDcyOyYjMTA3NDsmIzEwODM7JiMxMTAzOyYjMTA5MDsmIzExMDA7ICYjMTA5MTsmIzEwODk7JiMxMDkwOyYjMTA4ODsmIzEwODY7JiMxMDgxOyYjMTA4OTsmIzEwOTA7JiMxMDc0OyYjMTA3MjsmIzEwODQ7JiMxMDgwOyI+PGVsbGlwc2UgY3g9IjMyNS41NjIyIiBjeT0iMjM3LjIxMjQiIGZpbGw9IiNGMUYxRjEiIHJ4PSI5NC4wNjIyIiByeT0iMjEuMjEyNCIgc3R5bGU9InN0cm9rZTojMTgxODE4O3N0cm9rZS13aWR0aDowLjU7Ii8+PHRleHQgZmlsbD0iIzAwMDAwMCIgZm9udC1mYW1pbHk9InNhbnMtc2VyaWYiIGZvbnQtc2l6ZT0iMTQiIGxlbmd0aEFkanVzdD0ic3BhY2luZyIgdGV4dExlbmd0aD0iMTU0IiB4PSIyNDguNTYyMiIgeT0iMjQwLjk1NDYiPiYjMTA1OTsmIzEwODc7JiMxMDg4OyYjMTA3MjsmIzEwNzQ7JiMxMDgzOyYjMTEwMzsmIzEwOTA7JiMxMTAwOyAmIzEwOTE7JiMxMDg5OyYjMTA5MDsmIzEwODg7JiMxMDg2OyYjMTA4MTsmIzEwODk7JiMxMDkwOyYjMTA3NDsmIzEwNzI7JiMxMDg0OyYjMTA4MDs8L3RleHQ+PC9nPjxnIGNsYXNzPSJlbnRpdHkiIGRhdGEtZW50aXR5PSImIzEwNTU7JiMxMDg4OyYjMTA4NjsmIzEwODk7JiMxMDg0OyYjMTA4NjsmIzEwOTA7JiMxMDg4OyYjMTA3NzsmIzEwOTA7JiMxMTAwOyAmIzEwODk7JiMxMDkwOyYjMTA3MjsmIzEwOTA7JiMxMDkxOyYjMTA4OTsgJiMxMDkxOyYjMTA4OTsmIzEwOTA7JiMxMDg4OyYjMTA4NjsmIzEwODE7JiMxMDg5OyYjMTA5MDsmIzEwNzQ7IiBkYXRhLXNvdXJjZS1saW5lPSIxMiIgZGF0YS11aWQ9ImVudDAwMTIiIGlkPSJlbnRpdHlfJiMxMDU1OyYjMTA4ODsmIzEwODY7JiMxMDg5OyYjMTA4NDsmIzEwODY7JiMxMDkwOyYjMTA4ODsmIzEwNzc7JiMxMDkwOyYjMTEwMDsgJiMxMDg5OyYjMTA5MDsmIzEwNzI7JiMxMDkwOyYjMTA5MTsmIzEwODk7ICYjMTA5MTsmIzEwODk7JiMxMDkwOyYjMTA4ODsmIzEwODY7JiMxMDgxOyYjMTA4OTsmIzEwOTA7JiMxMDc0OyI+PGVsbGlwc2UgY3g9IjMyNS41NDEiIGN5PSI2NS4xMDgyIiBmaWxsPSIjRjFGMUYxIiByeD0iMTEzLjU0MSIgcnk9IjI1LjEwODIiIHN0eWxlPSJzdHJva2U6IzE4MTgxODtzdHJva2Utd2lkdGg6MC41OyIvPjx0ZXh0IGZpbGw9IiMwMDAwMDAiIGZvbnQtZmFtaWx5PSJzYW5zLXNlcmlmIiBmb250LXNpemU9IjE0IiBsZW5ndGhBZGp1c3Q9InNwYWNpbmciIHRleHRMZW5ndGg9IjE5NiIgeD0iMjI3LjU0MSIgeT0iNjguODUwNCI+JiMxMDU1OyYjMTA4ODsmIzEwODY7JiMxMDg5OyYjMTA4NDsmIzEwODY7JiMxMDkwOyYjMTA4ODsmIzEwNzc7JiMxMDkwOyYjMTEwMDsgJiMxMDg5OyYjMTA5MDsmIzEwNzI7JiMxMDkwOyYjMTA5MTsmIzEwODk7ICYjMTA5MTsmIzEwODk7JiMxMDkwOyYjMTA4ODsmIzEwODY7JiMxMDgxOyYjMTA4OTsmIzEwOTA7JiMxMDc0OzwvdGV4dD48L2c+PGcgY2xhc3M9ImVudGl0eSIgZGF0YS1lbnRpdHk9IiYjMTA1MzsmIzEwNzI7JiMxMDg5OyYjMTA5MDsmIzEwODg7JiMxMDg2OyYjMTA4MDsmIzEwOTA7JiMxMTAwOyAmIzEwOTE7JiMxMDc0OyYjMTA3NzsmIzEwNzY7JiMxMDg2OyYjMTA4NDsmIzEwODM7JiMxMDc3OyYjMTA4NTsmIzEwODA7JiMxMTAzOyIgZGF0YS1zb3VyY2UtbGluZT0iMTMiIGRhdGEtdWlkPSJlbnQwMDE0IiBpZD0iZW50aXR5XyYjMTA1MzsmIzEwNzI7JiMxMDg5OyYjMTA5MDsmIzEwODg7JiMxMDg2OyYjMTA4MDsmIzEwOTA7JiMxMTAwOyAmIzEwOTE7JiMxMDc0OyYjMTA3NzsmIzEwNzY7JiMxMDg2OyYjMTA4NDsmIzEwODM7JiMxMDc3OyYjMTA4NTsmIzEwODA7JiMxMTAzOyI+PGVsbGlwc2UgY3g9IjMyNS4zODM5IiBjeT0iMTYwLjA3NjgiIGZpbGw9IiNGMUYxRjEiIHJ4PSI5MC44ODM5IiByeT0iMjAuNTc2OCIgc3R5bGU9InN0cm9rZTojMTgxODE4O3N0cm9rZS13aWR0aDowLjU7Ii8+PHRleHQgZmlsbD0iIzAwMDAwMCIgZm9udC1mYW1pbHk9InNhbnMtc2VyaWYiIGZvbnQtc2l6ZT0iMTQiIGxlbmd0aEFkanVzdD0ic3BhY2luZyIgdGV4dExlbmd0aD0iMTQ3IiB4PSIyNTEuODgzOSIgeT0iMTYzLjgxOSI+JiMxMDUzOyYjMTA3MjsmIzEwODk7JiMxMDkwOyYjMTA4ODsmIzEwODY7JiMxMDgwOyYjMTA5MDsmIzExMDA7ICYjMTA5MTsmIzEwNzQ7JiMxMDc3OyYjMTA3NjsmIzEwODY7JiMxMDg0OyYjMTA4MzsmIzEwNzc7JiMxMDg1OyYjMTA4MDsmIzExMDM7PC90ZXh0PjwvZz48IS0tZW50aXR5ID8/Pz8/LS0+PGcgY2xhc3M9ImVudGl0eSIgZGF0YS1lbnRpdHk9IiYjMTA0MzsmIzEwODY7JiMxMDg5OyYjMTA5MDsmIzExMDA7IiBkYXRhLXNvdXJjZS1saW5lPSIzIiBkYXRhLXVpZD0iZW50MDAwMiIgaWQ9ImVudGl0eV8mIzEwNDM7JiMxMDg2OyYjMTA4OTsmIzEwOTA7JiMxMTAwOyI+PGVsbGlwc2UgY3g9IjQ4IiBjeT0iMzEwIiBmaWxsPSIjRjFGMUYxIiByeD0iOCIgcnk9IjgiIHN0eWxlPSJzdHJva2U6IzE4MTgxODtzdHJva2Utd2lkdGg6MC41OyIvPjxwYXRoIGQ9Ik00OCwzMTggTDQ4LDM0NSBNMzUsMzI2IEw2MSwzMjYgTTQ4LDM0NSBMMzUsMzYwIE00OCwzNDUgTDYxLDM2MCIgZmlsbD0ibm9uZSIgc3R5bGU9InN0cm9rZTojMTgxODE4O3N0cm9rZS13aWR0aDowLjU7Ii8+PHRleHQgZmlsbD0iIzAwMDAwMCIgZm9udC1mYW1pbHk9InNhbnMtc2VyaWYiIGZvbnQtc2l6ZT0iMTQiIGxlbmd0aEFkanVzdD0ic3BhY2luZyIgdGV4dExlbmd0aD0iMzUiIHg9IjMwLjUiIHk9IjM3NC43MzQ0Ij4mIzEwNDM7JiMxMDg2OyYjMTA4OTsmIzEwOTA7JiMxMTAwOzwvdGV4dD48L2c+PCEtLWVudGl0eSA/Pz8/Pz8/Pz8/Pz8tLT48ZyBjbGFzcz0iZW50aXR5IiBkYXRhLWVudGl0eT0iJiMxMDU1OyYjMTA4NjsmIzEwODM7JiMxMTAwOyYjMTA3OTsmIzEwODY7JiMxMDc0OyYjMTA3MjsmIzEwOTA7JiMxMDc3OyYjMTA4MzsmIzExMDA7IiBkYXRhLXNvdXJjZS1saW5lPSI0IiBkYXRhLXVpZD0iZW50MDAwMyIgaWQ9ImVudGl0eV8mIzEwNTU7JiMxMDg2OyYjMTA4MzsmIzExMDA7JiMxMDc5OyYjMTA4NjsmIzEwNzQ7JiMxMDcyOyYjMTA5MDsmIzEwNzc7JiMxMDgzOyYjMTEwMDsiPjxlbGxpcHNlIGN4PSI0OCIgY3k9IjE5NCIgZmlsbD0iI0YxRjFGMSIgcng9IjgiIHJ5PSI4IiBzdHlsZT0ic3Ryb2tlOiMxODE4MTg7c3Ryb2tlLXdpZHRoOjAuNTsiLz48cGF0aCBkPSJNNDgsMjAyIEw0OCwyMjkgTTM1LDIxMCBMNjEsMjEwIE00OCwyMjkgTDM1LDI0NCBNNDgsMjI5IEw2MSwyNDQiIGZpbGw9Im5vbmUiIHN0eWxlPSJzdHJva2U6IzE4MTgxODtzdHJva2Utd2lkdGg6MC41OyIvPjx0ZXh0IGZpbGw9IiMwMDAwMDAiIGZvbnQtZmFtaWx5PSJzYW5zLXNlcmlmIiBmb250LXNpemU9IjE0IiBsZW5ndGhBZGp1c3Q9InNwYWNpbmciIHRleHRMZW5ndGg9Ijg0IiB4PSI2IiB5PSIyNTguNzM0NCI+JiMxMDU1OyYjMTA4NjsmIzEwODM7JiMxMTAwOyYjMTA3OTsmIzEwODY7JiMxMDc0OyYjMTA3MjsmIzEwOTA7JiMxMDc3OyYjMTA4MzsmIzExMDA7PC90ZXh0PjwvZz48IS0tZW50aXR5ID8/Pz8/Py0tPjxnIGNsYXNzPSJlbnRpdHkiIGRhdGEtZW50aXR5PSImIzEwNTc7JiMxMDc3OyYjMTA4ODsmIzEwNzQ7JiMxMDc3OyYjMTA4ODsiIGRhdGEtc291cmNlLWxpbmU9IjUiIGRhdGEtdWlkPSJlbnQwMDA0IiBpZD0iZW50aXR5XyYjMTA1NzsmIzEwNzc7JiMxMDg4OyYjMTA3NDsmIzEwNzc7JiMxMDg4OyI+PGVsbGlwc2UgY3g9IjUyMyIgY3k9IjIwOCIgZmlsbD0iI0YxRjFGMSIgcng9IjgiIHJ5PSI4IiBzdHlsZT0ic3Ryb2tlOiMxODE4MTg7c3Ryb2tlLXdpZHRoOjAuNTsiLz48cGF0aCBkPSJNNTIzLDIxNiBMNTIzLDI0MyBNNTEwLDIyNCBMNTM2LDIyNCBNNTIzLDI0MyBMNTEwLDI1OCBNNTIzLDI0MyBMNTM2LDI1OCIgZmlsbD0ibm9uZSIgc3R5bGU9InN0cm9rZTojMTgxODE4O3N0cm9rZS13aWR0aDowLjU7Ii8+PHRleHQgZmlsbD0iIzAwMDAwMCIgZm9udC1mYW1pbHk9InNhbnMtc2VyaWYiIGZvbnQtc2l6ZT0iMTQiIGxlbmd0aEFkanVzdD0ic3BhY2luZyIgdGV4dExlbmd0aD0iNDIiIHg9IjUwMiIgeT0iMjcyLjczNDQiPiYjMTA1NzsmIzEwNzc7JiMxMDg4OyYjMTA3NDsmIzEwNzc7JiMxMDg4OzwvdGV4dD48L2c+PCEtLWxpbmsgPz8/Pz8gdG8gPz8/Pz8/Pz8/Pz8/Pz8/Pz8/LS0+PGcgY2xhc3M9ImxpbmsiIGRhdGEtZW50aXR5LTE9IiYjMTA0MzsmIzEwODY7JiMxMDg5OyYjMTA5MDsmIzExMDA7IiBkYXRhLWVudGl0eS0yPSImIzEwNDc7JiMxMDcyOyYjMTA4ODsmIzEwNzc7JiMxMDc1OyYjMTA4MDsmIzEwODk7JiMxMDkwOyYjMTA4ODsmIzEwODA7JiMxMDg4OyYjMTA4NjsmIzEwNzQ7JiMxMDcyOyYjMTA5MDsmIzExMDA7JiMxMDg5OyYjMTEwMzsiIGRhdGEtc291cmNlLWxpbmU9IjgiIGRhdGEtdWlkPSJsbms3IiBpZD0ibGlua18mIzEwNDM7JiMxMDg2OyYjMTA4OTsmIzEwOTA7JiMxMTAwO18mIzEwNDc7JiMxMDcyOyYjMTA4ODsmIzEwNzc7JiMxMDc1OyYjMTA4MDsmIzEwODk7JiMxMDkwOyYjMTA4ODsmIzEwODA7JiMxMDg4OyYjMTA4NjsmIzEwNzQ7JiMxMDcyOyYjMTA5MDsmIzExMDA7JiMxMDg5OyYjMTEwMzsiPjxwYXRoIGQ9Ik02NS44MiwzMzcuMzUgQzEwMS42MywzMzMuODQgMTg3LjI2LDMyNS40NSAyNTAuMjQsMzE5LjI4IiBmaWxsPSJub25lIiBpZD0iJiMxMDQzOyYjMTA4NjsmIzEwODk7JiMxMDkwOyYjMTEwMDstJiMxMDQ3OyYjMTA3MjsmIzEwODg7JiMxMDc3OyYjMTA3NTsmIzEwODA7JiMxMDg5OyYjMTA5MDsmIzEwODg7JiMxMDgwOyYjMTA4ODsmIzEwODY7JiMxMDc0OyYjMTA3MjsmIzEwOTA7JiMxMTAwOyYjMTA4OTsmIzExMDM7IiBzdHlsZT0ic3Ryb2tlOiMxODE4MTg7c3Ryb2tlLXdpZHRoOjE7Ii8+PC9nPjwhLS1saW5rID8/Pz8/IHRvID8/Pz8/ID8gPz8/Pz8/Py0tPjxnIGNsYXNzPSJsaW5rIiBkYXRhLWVudGl0eS0xPSImIzEwNDM7JiMxMDg2OyYjMTA4OTsmIzEwOTA7JiMxMTAwOyIgZGF0YS1lbnRpdHktMj0iJiMxMDQyOyYjMTA4NjsmIzEwODE7JiMxMDkwOyYjMTA4MDsgJiMxMDc0OyAmIzEwODk7JiMxMDgwOyYjMTA4OTsmIzEwOTA7JiMxMDc3OyYjMTA4NDsmIzEwOTE7IiBkYXRhLXNvdXJjZS1saW5lPSI5IiBkYXRhLXVpZD0ibG5rOSIgaWQ9ImxpbmtfJiMxMDQzOyYjMTA4NjsmIzEwODk7JiMxMDkwOyYjMTEwMDtfJiMxMDQyOyYjMTA4NjsmIzEwODE7JiMxMDkwOyYjMTA4MDsgJiMxMDc0OyAmIzEwODk7JiMxMDgwOyYjMTA4OTsmIzEwOTA7JiMxMDc3OyYjMTA4NDsmIzEwOTE7Ij48cGF0aCBkPSJNNjUuODIsMzQxLjY5IEMxMDQuNTUsMzQ3Ljg3IDIwMS41NywzNjMuMzcgMjY1LjE2LDM3My41MiIgZmlsbD0ibm9uZSIgaWQ9IiYjMTA0MzsmIzEwODY7JiMxMDg5OyYjMTA5MDsmIzExMDA7LSYjMTA0MjsmIzEwODY7JiMxMDgxOyYjMTA5MDsmIzEwODA7ICYjMTA3NDsgJiMxMDg5OyYjMTA4MDsmIzEwODk7JiMxMDkwOyYjMTA3NzsmIzEwODQ7JiMxMDkxOyIgc3R5bGU9InN0cm9rZTojMTgxODE4O3N0cm9rZS13aWR0aDoxOyIvPjwvZz48IS0tbGluayA/Pz8/Pz8/Pz8/Pz8gdG8gPz8/Pz8/Pz8/ID8/Pz8/Pz8/Pz8/Py0tPjxnIGNsYXNzPSJsaW5rIiBkYXRhLWVudGl0eS0xPSImIzEwNTU7JiMxMDg2OyYjMTA4MzsmIzExMDA7JiMxMDc5OyYjMTA4NjsmIzEwNzQ7JiMxMDcyOyYjMTA5MDsmIzEwNzc7JiMxMDgzOyYjMTEwMDsiIGRhdGEtZW50aXR5LTI9IiYjMTA1OTsmIzEwODc7JiMxMDg4OyYjMTA3MjsmIzEwNzQ7JiMxMDgzOyYjMTEwMzsmIzEwOTA7JiMxMTAwOyAmIzEwOTE7JiMxMDg5OyYjMTA5MDsmIzEwODg7JiMxMDg2OyYjMTA4MTsmIzEwODk7JiMxMDkwOyYjMTA3NDsmIzEwNzI7JiMxMDg0OyYjMTA4MDsiIGRhdGEtc291cmNlLWxpbmU9IjExIiBkYXRhLXVpZD0ibG5rMTEiIGlkPSJsaW5rXyYjMTA1NTsmIzEwODY7JiMxMDgzOyYjMTEwMDsmIzEwNzk7JiMxMDg2OyYjMTA3NDsmIzEwNzI7JiMxMDkwOyYjMTA3NzsmIzEwODM7JiMxMTAwO18mIzEwNTk7JiMxMDg3OyYjMTA4ODsmIzEwNzI7JiMxMDc0OyYjMTA4MzsmIzExMDM7JiMxMDkwOyYjMTEwMDsgJiMxMDkxOyYjMTA4OTsmIzEwOTA7JiMxMDg4OyYjMTA4NjsmIzEwODE7JiMxMDg5OyYjMTA5MDsmIzEwNzQ7JiMxMDcyOyYjMTA4NDsmIzEwODA7Ij48cGF0aCBkPSJNOTAuMjUsMjI1LjEgQzEyOCwyMjcuMDEgMTg1LjE4LDIyOS45MiAyMzMuNiwyMzIuMzgiIGZpbGw9Im5vbmUiIGlkPSImIzEwNTU7JiMxMDg2OyYjMTA4MzsmIzExMDA7JiMxMDc5OyYjMTA4NjsmIzEwNzQ7JiMxMDcyOyYjMTA5MDsmIzEwNzc7JiMxMDgzOyYjMTEwMDstJiMxMDU5OyYjMTA4NzsmIzEwODg7JiMxMDcyOyYjMTA3NDsmIzEwODM7JiMxMTAzOyYjMTA5MDsmIzExMDA7ICYjMTA5MTsmIzEwODk7JiMxMDkwOyYjMTA4ODsmIzEwODY7JiMxMDgxOyYjMTA4OTsmIzEwOTA7JiMxMDc0OyYjMTA3MjsmIzEwODQ7JiMxMDgwOyIgc3R5bGU9InN0cm9rZTojMTgxODE4O3N0cm9rZS13aWR0aDoxOyIvPjwvZz48IS0tbGluayA/Pz8/Pz8/Pz8/Pz8gdG8gPz8/Pz8/Pz8/Pz8gPz8/Pz8/ID8/Pz8/Pz8/Py0tPjxnIGNsYXNzPSJsaW5rIiBkYXRhLWVudGl0eS0xPSImIzEwNTU7JiMxMDg2OyYjMTA4MzsmIzExMDA7JiMxMDc5OyYjMTA4NjsmIzEwNzQ7JiMxMDcyOyYjMTA5MDsmIzEwNzc7JiMxMDgzOyYjMTEwMDsiIGRhdGEtZW50aXR5LTI9IiYjMTA1NTsmIzEwODg7JiMxMDg2OyYjMTA4OTsmIzEwODQ7JiMxMDg2OyYjMTA5MDsmIzEwODg7JiMxMDc3OyYjMTA5MDsmIzExMDA7ICYjMTA4OTsmIzEwOTA7JiMxMDcyOyYjMTA5MDsmIzEwOTE7JiMxMDg5OyAmIzEwOTE7JiMxMDg5OyYjMTA5MDsmIzEwODg7JiMxMDg2OyYjMTA4MTsmIzEwODk7JiMxMDkwOyYjMTA3NDsiIGRhdGEtc291cmNlLWxpbmU9IjEyIiBkYXRhLXVpZD0ibG5rMTMiIGlkPSJsaW5rXyYjMTA1NTsmIzEwODY7JiMxMDgzOyYjMTEwMDsmIzEwNzk7JiMxMDg2OyYjMTA3NDsmIzEwNzI7JiMxMDkwOyYjMTA3NzsmIzEwODM7JiMxMTAwO18mIzEwNTU7JiMxMDg4OyYjMTA4NjsmIzEwODk7JiMxMDg0OyYjMTA4NjsmIzEwOTA7JiMxMDg4OyYjMTA3NzsmIzEwOTA7JiMxMTAwOyAmIzEwODk7JiMxMDkwOyYjMTA3MjsmIzEwOTA7JiMxMDkxOyYjMTA4OTsgJiMxMDkxOyYjMTA4OTsmIzEwOTA7JiMxMDg4OyYjMTA4NjsmIzEwODE7JiMxMDg5OyYjMTA5MDsmIzEwNzQ7Ij48cGF0aCBkPSJNODEuNzEsMTg1LjE4IEM5My4wNCwxNzMuNTUgMTA2LjM0LDE2MS4zNiAxMjAsMTUyIEMxNjIuODIsMTIyLjY4IDIxNy4wOSwxMDAuMTUgMjU4Ljk3LDg1LjM4IiBmaWxsPSJub25lIiBpZD0iJiMxMDU1OyYjMTA4NjsmIzEwODM7JiMxMTAwOyYjMTA3OTsmIzEwODY7JiMxMDc0OyYjMTA3MjsmIzEwOTA7JiMxMDc3OyYjMTA4MzsmIzExMDA7LSYjMTA1NTsmIzEwODg7JiMxMDg2OyYjMTA4OTsmIzEwODQ7JiMxMDg2OyYjMTA5MDsmIzEwODg7JiMxMDc3OyYjMTA5MDsmIzExMDA7ICYjMTA4OTsmIzEwOTA7JiMxMDcyOyYjMTA5MDsmIzEwOTE7JiMxMDg5OyAmIzEwOTE7JiMxMDg5OyYjMTA5MDsmIzEwODg7JiMxMDg2OyYjMTA4MTsmIzEwODk7JiMxMDkwOyYjMTA3NDsiIHN0eWxlPSJzdHJva2U6IzE4MTgxODtzdHJva2Utd2lkdGg6MTsiLz48L2c+PCEtLWxpbmsgPz8/Pz8/Pz8/Pz8/IHRvID8/Pz8/Pz8/PyA/Pz8/Pz8/Pz8/Py0tPjxnIGNsYXNzPSJsaW5rIiBkYXRhLWVudGl0eS0xPSImIzEwNTU7JiMxMDg2OyYjMTA4MzsmIzExMDA7JiMxMDc5OyYjMTA4NjsmIzEwNzQ7JiMxMDcyOyYjMTA5MDsmIzEwNzc7JiMxMDgzOyYjMTEwMDsiIGRhdGEtZW50aXR5LTI9IiYjMTA1MzsmIzEwNzI7JiMxMDg5OyYjMTA5MDsmIzEwODg7JiMxMDg2OyYjMTA4MDsmIzEwOTA7JiMxMTAwOyAmIzEwOTE7JiMxMDc0OyYjMTA3NzsmIzEwNzY7JiMxMDg2OyYjMTA4NDsmIzEwODM7JiMxMDc3OyYjMTA4NTsmIzEwODA7JiMxMTAzOyIgZGF0YS1zb3VyY2UtbGluZT0iMTMiIGRhdGEtdWlkPSJsbmsxNSIgaWQ9ImxpbmtfJiMxMDU1OyYjMTA4NjsmIzEwODM7JiMxMTAwOyYjMTA3OTsmIzEwODY7JiMxMDc0OyYjMTA3MjsmIzEwOTA7JiMxMDc3OyYjMTA4MzsmIzExMDA7XyYjMTA1MzsmIzEwNzI7JiMxMDg5OyYjMTA5MDsmIzEwODg7JiMxMDg2OyYjMTA4MDsmIzEwOTA7JiMxMTAwOyAmIzEwOTE7JiMxMDc0OyYjMTA3NzsmIzEwNzY7JiMxMDg2OyYjMTA4NDsmIzEwODM7JiMxMDc3OyYjMTA4NTsmIzEwODA7JiMxMTAzOyI+PHBhdGggZD0iTTkwLjIyLDE5Ni45IEM5OS43LDE5MS44OSAxMDkuOTUsMTg3LjIxIDEyMCwxODQgQzE1Ni43NywxNzIuMjQgMTk4LjkxLDE2Ni4xMyAyMzUuMzUsMTYzIiBmaWxsPSJub25lIiBpZD0iJiMxMDU1OyYjMTA4NjsmIzEwODM7JiMxMTAwOyYjMTA3OTsmIzEwODY7JiMxMDc0OyYjMTA3MjsmIzEwOTA7JiMxMDc3OyYjMTA4MzsmIzExMDA7LSYjMTA1MzsmIzEwNzI7JiMxMDg5OyYjMTA5MDsmIzEwODg7JiMxMDg2OyYjMTA4MDsmIzEwOTA7JiMxMTAwOyAmIzEwOTE7JiMxMDc0OyYjMTA3NzsmIzEwNzY7JiMxMDg2OyYjMTA4NDsmIzEwODM7JiMxMDc3OyYjMTA4NTsmIzEwODA7JiMxMTAzOyIgc3R5bGU9InN0cm9rZTojMTgxODE4O3N0cm9rZS13aWR0aDoxOyIvPjwvZz48IS0tcmV2ZXJzZSBsaW5rID8/Pz8/Pz8/Pz8/PyB0byA/Pz8/Pz8/Pz8/Pz8/Pz8/Pz8tLT48ZyBjbGFzcz0ibGluayIgZGF0YS1lbnRpdHktMT0iJiMxMDU1OyYjMTA4NjsmIzEwODM7JiMxMTAwOyYjMTA3OTsmIzEwODY7JiMxMDc0OyYjMTA3MjsmIzEwOTA7JiMxMDc3OyYjMTA4MzsmIzExMDA7IiBkYXRhLWVudGl0eS0yPSImIzEwNDc7JiMxMDcyOyYjMTA4ODsmIzEwNzc7JiMxMDc1OyYjMTA4MDsmIzEwODk7JiMxMDkwOyYjMTA4ODsmIzEwODA7JiMxMDg4OyYjMTA4NjsmIzEwNzQ7JiMxMDcyOyYjMTA5MDsmIzExMDA7JiMxMDg5OyYjMTEwMzsiIGRhdGEtc291cmNlLWxpbmU9IjE0IiBkYXRhLXVpZD0ibG5rMTYiIGlkPSJsaW5rXyYjMTA1NTsmIzEwODY7JiMxMDgzOyYjMTEwMDsmIzEwNzk7JiMxMDg2OyYjMTA3NDsmIzEwNzI7JiMxMDkwOyYjMTA3NzsmIzEwODM7JiMxMTAwO18mIzEwNDc7JiMxMDcyOyYjMTA4ODsmIzEwNzc7JiMxMDc1OyYjMTA4MDsmIzEwODk7JiMxMDkwOyYjMTA4ODsmIzEwODA7JiMxMDg4OyYjMTA4NjsmIzEwNzQ7JiMxMDcyOyYjMTA5MDsmIzExMDA7JiMxMDg5OyYjMTEwMzsiPjxwYXRoIGQ9Ik05NS41OTY2LDI0MS42Nzg3IEMxMjMuMDg2NiwyNTIuNDQ4NyAxNTQuNjQsMjY0LjI3IDE4OCwyNzUgQzIxNC42NCwyODMuNTcgMjQ0LjYzLDI5MS44NSAyNjkuNjksMjk4LjM5IiBmaWxsPSJub25lIiBpZD0iJiMxMDU1OyYjMTA4NjsmIzEwODM7JiMxMTAwOyYjMTA3OTsmIzEwODY7JiMxMDc0OyYjMTA3MjsmIzEwOTA7JiMxMDc3OyYjMTA4MzsmIzExMDA7LWJhY2t0by0mIzEwNDc7JiMxMDcyOyYjMTA4ODsmIzEwNzc7JiMxMDc1OyYjMTA4MDsmIzEwODk7JiMxMDkwOyYjMTA4ODsmIzEwODA7JiMxMDg4OyYjMTA4NjsmIzEwNzQ7JiMxMDcyOyYjMTA5MDsmIzExMDA7JiMxMDg5OyYjMTEwMzsiIHN0eWxlPSJzdHJva2U6IzE4MTgxODtzdHJva2Utd2lkdGg6MTtzdHJva2UtZGFzaGFycmF5OjcuMCw3LjA7Ii8+PHBvbHlnb24gZmlsbD0iIzE4MTgxOCIgcG9pbnRzPSI5MC4wMSwyMzkuNDksOTYuOTMwNywyNDYuNDk3NCw5NC42NjU1LDI0MS4zMTM5LDk5Ljg0OSwyMzkuMDQ4Nyw5MC4wMSwyMzkuNDkiIHN0eWxlPSJzdHJva2U6IzE4MTgxODtzdHJva2Utd2lkdGg6MTsiLz48L2c+PCEtLWxpbmsgPz8/Pz8/Pz8/Pz8/Pz8/Pz8/IHRvID8/Pz8/Py0tPjxnIGNsYXNzPSJsaW5rIiBkYXRhLWVudGl0eS0xPSImIzEwNDc7JiMxMDcyOyYjMTA4ODsmIzEwNzc7JiMxMDc1OyYjMTA4MDsmIzEwODk7JiMxMDkwOyYjMTA4ODsmIzEwODA7JiMxMDg4OyYjMTA4NjsmIzEwNzQ7JiMxMDcyOyYjMTA5MDsmIzExMDA7JiMxMDg5OyYjMTEwMzsiIGRhdGEtZW50aXR5LTI9IiYjMTA1NzsmIzEwNzc7JiMxMDg4OyYjMTA3NDsmIzEwNzc7JiMxMDg4OyIgZGF0YS1zb3VyY2UtbGluZT0iMTYiIGRhdGEtdWlkPSJsbmsxNyIgaWQ9ImxpbmtfJiMxMDQ3OyYjMTA3MjsmIzEwODg7JiMxMDc3OyYjMTA3NTsmIzEwODA7JiMxMDg5OyYjMTA5MDsmIzEwODg7JiMxMDgwOyYjMTA4ODsmIzEwODY7JiMxMDc0OyYjMTA3MjsmIzEwOTA7JiMxMTAwOyYjMTA4OTsmIzExMDM7XyYjMTA1NzsmIzEwNzc7JiMxMDg4OyYjMTA3NDsmIzEwNzc7JiMxMDg4OyI+PHBhdGggZD0iTTM4NywyOTkuODQgQzQxMS4yMSwyOTMuODkgNDM4Ljk5LDI4NS42OCA0NjMsMjc1IEM0NzYuNjksMjY4LjkxIDQ5MC44NSwyNTkuOSA1MDEuODYsMjUyLjE4IiBmaWxsPSJub25lIiBpZD0iJiMxMDQ3OyYjMTA3MjsmIzEwODg7JiMxMDc3OyYjMTA3NTsmIzEwODA7JiMxMDg5OyYjMTA5MDsmIzEwODg7JiMxMDgwOyYjMTA4ODsmIzEwODY7JiMxMDc0OyYjMTA3MjsmIzEwOTA7JiMxMTAwOyYjMTA4OTsmIzExMDM7LSYjMTA1NzsmIzEwNzc7JiMxMDg4OyYjMTA3NDsmIzEwNzc7JiMxMDg4OyIgc3R5bGU9InN0cm9rZTojMTgxODE4O3N0cm9rZS13aWR0aDoxOyIvPjwvZz48IS0tbGluayA/Pz8/PyA/ID8/Pz8/Pz8gdG8gPz8/Pz8/LS0+PGcgY2xhc3M9ImxpbmsiIGRhdGEtZW50aXR5LTE9IiYjMTA0MjsmIzEwODY7JiMxMDgxOyYjMTA5MDsmIzEwODA7ICYjMTA3NDsgJiMxMDg5OyYjMTA4MDsmIzEwODk7JiMxMDkwOyYjMTA3NzsmIzEwODQ7JiMxMDkxOyIgZGF0YS1lbnRpdHktMj0iJiMxMDU3OyYjMTA3NzsmIzEwODg7JiMxMDc0OyYjMTA3NzsmIzEwODg7IiBkYXRhLXNvdXJjZS1saW5lPSIxNyIgZGF0YS11aWQ9ImxuazE4IiBpZD0ibGlua18mIzEwNDI7JiMxMDg2OyYjMTA4MTsmIzEwOTA7JiMxMDgwOyAmIzEwNzQ7ICYjMTA4OTsmIzEwODA7JiMxMDg5OyYjMTA5MDsmIzEwNzc7JiMxMDg0OyYjMTA5MTtfJiMxMDU3OyYjMTA3NzsmIzEwODg7JiMxMDc0OyYjMTA3NzsmIzEwODg7Ij48cGF0aCBkPSJNMzkzLjYyLDM3Ny4wNiBDNDE3LjQ4LDM3Mi4yMSA0NDMuMjksMzYzLjUxIDQ2MywzNDggQzQ4Ni41LDMyOS41MSA1MDEuNzQsMjk5LjAyIDUxMC44NCwyNzQuNjciIGZpbGw9Im5vbmUiIGlkPSImIzEwNDI7JiMxMDg2OyYjMTA4MTsmIzEwOTA7JiMxMDgwOyAmIzEwNzQ7ICYjMTA4OTsmIzEwODA7JiMxMDg5OyYjMTA5MDsmIzEwNzc7JiMxMDg0OyYjMTA5MTstJiMxMDU3OyYjMTA3NzsmIzEwODg7JiMxMDc0OyYjMTA3NzsmIzEwODg7IiBzdHlsZT0ic3Ryb2tlOiMxODE4MTg7c3Ryb2tlLXdpZHRoOjE7Ii8+PC9nPjwhLS1saW5rID8/Pz8/Pz8/PyA/Pz8/Pz8/Pz8/Pz8gdG8gPz8/Pz8/LS0+PGcgY2xhc3M9ImxpbmsiIGRhdGEtZW50aXR5LTE9IiYjMTA1OTsmIzEwODc7JiMxMDg4OyYjMTA3MjsmIzEwNzQ7JiMxMDgzOyYjMTEwMzsmIzEwOTA7JiMxMTAwOyAmIzEwOTE7JiMxMDg5OyYjMTA5MDsmIzEwODg7JiMxMDg2OyYjMTA4MTsmIzEwODk7JiMxMDkwOyYjMTA3NDsmIzEwNzI7JiMxMDg0OyYjMTA4MDsiIGRhdGEtZW50aXR5LTI9IiYjMTA1NzsmIzEwNzc7JiMxMDg4OyYjMTA3NDsmIzEwNzc7JiMxMDg4OyIgZGF0YS1zb3VyY2UtbGluZT0iMTgiIGRhdGEtdWlkPSJsbmsxOSIgaWQ9ImxpbmtfJiMxMDU5OyYjMTA4NzsmIzEwODg7JiMxMDcyOyYjMTA3NDsmIzEwODM7JiMxMTAzOyYjMTA5MDsmIzExMDA7ICYjMTA5MTsmIzEwODk7JiMxMDkwOyYjMTA4ODsmIzEwODY7JiMxMDgxOyYjMTA4OTsmIzEwOTA7JiMxMDc0OyYjMTA3MjsmIzEwODQ7JiMxMDgwO18mIzEwNTc7JiMxMDc3OyYjMTA4ODsmIzEwNzQ7JiMxMDc3OyYjMTA4ODsiPjxwYXRoIGQ9Ik00MTkuNjcsMjM3IEM0NTAuNTUsMjM3IDQ4Mi4wNCwyMzcgNTAxLjc4LDIzNyIgZmlsbD0ibm9uZSIgaWQ9IiYjMTA1OTsmIzEwODc7JiMxMDg4OyYjMTA3MjsmIzEwNzQ7JiMxMDgzOyYjMTEwMzsmIzEwOTA7JiMxMTAwOyAmIzEwOTE7JiMxMDg5OyYjMTA5MDsmIzEwODg7JiMxMDg2OyYjMTA4MTsmIzEwODk7JiMxMDkwOyYjMTA3NDsmIzEwNzI7JiMxMDg0OyYjMTA4MDstJiMxMDU3OyYjMTA3NzsmIzEwODg7JiMxMDc0OyYjMTA3NzsmIzEwODg7IiBzdHlsZT0ic3Ryb2tlOiMxODE4MTg7c3Ryb2tlLXdpZHRoOjE7Ii8+PC9nPjwhLS1saW5rID8/Pz8/Pz8/Pz8/ID8/Pz8/PyA/Pz8/Pz8/Pz8gdG8gPz8/Pz8/LS0+PGcgY2xhc3M9ImxpbmsiIGRhdGEtZW50aXR5LTE9IiYjMTA1NTsmIzEwODg7JiMxMDg2OyYjMTA4OTsmIzEwODQ7JiMxMDg2OyYjMTA5MDsmIzEwODg7JiMxMDc3OyYjMTA5MDsmIzExMDA7ICYjMTA4OTsmIzEwOTA7JiMxMDcyOyYjMTA5MDsmIzEwOTE7JiMxMDg5OyAmIzEwOTE7JiMxMDg5OyYjMTA5MDsmIzEwODg7JiMxMDg2OyYjMTA4MTsmIzEwODk7JiMxMDkwOyYjMTA3NDsiIGRhdGEtZW50aXR5LTI9IiYjMTA1NzsmIzEwNzc7JiMxMDg4OyYjMTA3NDsmIzEwNzc7JiMxMDg4OyIgZGF0YS1zb3VyY2UtbGluZT0iMTkiIGRhdGEtdWlkPSJsbmsyMCIgaWQ9ImxpbmtfJiMxMDU1OyYjMTA4ODsmIzEwODY7JiMxMDg5OyYjMTA4NDsmIzEwODY7JiMxMDkwOyYjMTA4ODsmIzEwNzc7JiMxMDkwOyYjMTEwMDsgJiMxMDg5OyYjMTA5MDsmIzEwNzI7JiMxMDkwOyYjMTA5MTsmIzEwODk7ICYjMTA5MTsmIzEwODk7JiMxMDkwOyYjMTA4ODsmIzEwODY7JiMxMDgxOyYjMTA4OTsmIzEwOTA7JiMxMDc0O18mIzEwNTc7JiMxMDc3OyYjMTA4ODsmIzEwNzQ7JiMxMDc3OyYjMTA4ODsiPjxwYXRoIGQ9Ik0zOTguMjQsODQuMjIgQzQyMC45Myw5Mi45NCA0NDQuOCwxMDUuMTggNDYzLDEyMiBDNDg1LjY2LDE0Mi45NCA1MDEsMTc0LjU3IDUxMC4zNCwxOTkuMzUiIGZpbGw9Im5vbmUiIGlkPSImIzEwNTU7JiMxMDg4OyYjMTA4NjsmIzEwODk7JiMxMDg0OyYjMTA4NjsmIzEwOTA7JiMxMDg4OyYjMTA3NzsmIzEwOTA7JiMxMTAwOyAmIzEwODk7JiMxMDkwOyYjMTA3MjsmIzEwOTA7JiMxMDkxOyYjMTA4OTsgJiMxMDkxOyYjMTA4OTsmIzEwOTA7JiMxMDg4OyYjMTA4NjsmIzEwODE7JiMxMDg5OyYjMTA5MDsmIzEwNzQ7LSYjMTA1NzsmIzEwNzc7JiMxMDg4OyYjMTA3NDsmIzEwNzc7JiMxMDg4OyIgc3R5bGU9InN0cm9rZTojMTgxODE4O3N0cm9rZS13aWR0aDoxOyIvPjwvZz48IS0tbGluayA/Pz8/Pz8/Pz8gPz8/Pz8/Pz8/Pz8gdG8gPz8/Pz8/LS0+PGcgY2xhc3M9ImxpbmsiIGRhdGEtZW50aXR5LTE9IiYjMTA1MzsmIzEwNzI7JiMxMDg5OyYjMTA5MDsmIzEwODg7JiMxMDg2OyYjMTA4MDsmIzEwOTA7JiMxMTAwOyAmIzEwOTE7JiMxMDc0OyYjMTA3NzsmIzEwNzY7JiMxMDg2OyYjMTA4NDsmIzEwODM7JiMxMDc3OyYjMTA4NTsmIzEwODA7JiMxMTAzOyIgZGF0YS1lbnRpdHktMj0iJiMxMDU3OyYjMTA3NzsmIzEwODg7JiMxMDc0OyYjMTA3NzsmIzEwODg7IiBkYXRhLXNvdXJjZS1saW5lPSIyMCIgZGF0YS11aWQ9ImxuazIxIiBpZD0ibGlua18mIzEwNTM7JiMxMDcyOyYjMTA4OTsmIzEwOTA7JiMxMDg4OyYjMTA4NjsmIzEwODA7JiMxMDkwOyYjMTEwMDsgJiMxMDkxOyYjMTA3NDsmIzEwNzc7JiMxMDc2OyYjMTA4NjsmIzEwODQ7JiMxMDgzOyYjMTA3NzsmIzEwODU7JiMxMDgwOyYjMTEwMztfJiMxMDU3OyYjMTA3NzsmIzEwODg7JiMxMDc0OyYjMTA3NzsmIzEwODg7Ij48cGF0aCBkPSJNMzkyLjU1LDE3My45NSBDNDE1LjQxLDE3OS45MiA0NDAuODQsMTg3LjkgNDYzLDE5OCBDNDc2Ljc0LDIwNC4yNyA0OTAuOSwyMTMuNTEgNTAxLjksMjIxLjQzIiBmaWxsPSJub25lIiBpZD0iJiMxMDUzOyYjMTA3MjsmIzEwODk7JiMxMDkwOyYjMTA4ODsmIzEwODY7JiMxMDgwOyYjMTA5MDsmIzExMDA7ICYjMTA5MTsmIzEwNzQ7JiMxMDc3OyYjMTA3NjsmIzEwODY7JiMxMDg0OyYjMTA4MzsmIzEwNzc7JiMxMDg1OyYjMTA4MDsmIzExMDM7LSYjMTA1NzsmIzEwNzc7JiMxMDg4OyYjMTA3NDsmIzEwNzc7JiMxMDg4OyIgc3R5bGU9InN0cm9rZTojMTgxODE4O3N0cm9rZS13aWR0aDoxOyIvPjwvZz48IS0tbGluayA/Pz8/Pz8/Pz8gPz8/Pz8/Pz8/Pz8/IHRvID8/Pz8/Pz8/Pz8/ID8/Pz8/PyA/Pz8/Pz8/Pz8tLT48ZyBjbGFzcz0ibGluayIgZGF0YS1lbnRpdHktMT0iJiMxMDU5OyYjMTA4NzsmIzEwODg7JiMxMDcyOyYjMTA3NDsmIzEwODM7JiMxMTAzOyYjMTA5MDsmIzExMDA7ICYjMTA5MTsmIzEwODk7JiMxMDkwOyYjMTA4ODsmIzEwODY7JiMxMDgxOyYjMTA4OTsmIzEwOTA7JiMxMDc0OyYjMTA3MjsmIzEwODQ7JiMxMDgwOyIgZGF0YS1lbnRpdHktMj0iJiMxMDU1OyYjMTA4ODsmIzEwODY7JiMxMDg5OyYjMTA4NDsmIzEwODY7JiMxMDkwOyYjMTA4ODsmIzEwNzc7JiMxMDkwOyYjMTEwMDsgJiMxMDg5OyYjMTA5MDsmIzEwNzI7JiMxMDkwOyYjMTA5MTsmIzEwODk7ICYjMTA5MTsmIzEwODk7JiMxMDkwOyYjMTA4ODsmIzEwODY7JiMxMDgxOyYjMTA4OTsmIzEwOTA7JiMxMDc0OyIgZGF0YS1zb3VyY2UtbGluZT0iMjIiIGRhdGEtdWlkPSJsbmsyMiIgaWQ9ImxpbmtfJiMxMDU5OyYjMTA4NzsmIzEwODg7JiMxMDcyOyYjMTA3NDsmIzEwODM7JiMxMTAzOyYjMTA5MDsmIzExMDA7ICYjMTA5MTsmIzEwODk7JiMxMDkwOyYjMTA4ODsmIzEwODY7JiMxMDgxOyYjMTA4OTsmIzEwOTA7JiMxMDc0OyYjMTA3MjsmIzEwODQ7JiMxMDgwO18mIzEwNTU7JiMxMDg4OyYjMTA4NjsmIzEwODk7JiMxMDg0OyYjMTA4NjsmIzEwOTA7JiMxMDg4OyYjMTA3NzsmIzEwOTA7JiMxMTAwOyAmIzEwODk7JiMxMDkwOyYjMTA3MjsmIzEwOTA7JiMxMDkxOyYjMTA4OTsgJiMxMDkxOyYjMTA4OTsmIzEwOTA7JiMxMDg4OyYjMTA4NjsmIzEwODE7JiMxMDg5OyYjMTA5MDsmIzEwNzQ7Ij48cGF0aCBkPSJNMjM3LjU2LDI0NC40NCBDMjA0Ljg0LDI0Mi4xOSAxNzAuNDgsMjMyLjg3IDE0OSwyMDcuNSBDMTA2LjE4LDE1Ni45MyAxOTAuMjczMiwxMTMuNDE2NCAyNTYuODAzMiw4OC4wNjY0IiBmaWxsPSJub25lIiBpZD0iJiMxMDU5OyYjMTA4NzsmIzEwODg7JiMxMDcyOyYjMTA3NDsmIzEwODM7JiMxMTAzOyYjMTA5MDsmIzExMDA7ICYjMTA5MTsmIzEwODk7JiMxMDkwOyYjMTA4ODsmIzEwODY7JiMxMDgxOyYjMTA4OTsmIzEwOTA7JiMxMDc0OyYjMTA3MjsmIzEwODQ7JiMxMDgwOy10by0mIzEwNTU7JiMxMDg4OyYjMTA4NjsmIzEwODk7JiMxMDg0OyYjMTA4NjsmIzEwOTA7JiMxMDg4OyYjMTA3NzsmIzEwOTA7JiMxMTAwOyAmIzEwODk7JiMxMDkwOyYjMTA3MjsmIzEwOTA7JiMxMDkxOyYjMTA4OTsgJiMxMDkxOyYjMTA4OTsmIzEwOTA7JiMxMDg4OyYjMTA4NjsmIzEwODE7JiMxMDg5OyYjMTA5MDsmIzEwNzQ7IiBzdHlsZT0ic3Ryb2tlOiMxODE4MTg7c3Ryb2tlLXdpZHRoOjE7c3Ryb2tlLWRhc2hhcnJheTo3LjAsNy4wOyIvPjxwb2x5Z29uIGZpbGw9IiMxODE4MTgiIHBvaW50cz0iMjYyLjQxLDg1LjkzLDI1Mi41NzU2LDg1LjM5NjcsMjU3LjczNzcsODcuNzEwMywyNTUuNDI0MSw5Mi44NzI0LDI2Mi40MSw4NS45MyIgc3R5bGU9InN0cm9rZTojMTgxODE4O3N0cm9rZS13aWR0aDoxOyIvPjx0ZXh0IGZpbGw9IiMwMDAwMDAiIGZvbnQtZmFtaWx5PSJzYW5zLXNlcmlmIiBmb250LXNpemU9IjEzIiBsZW5ndGhBZGp1c3Q9InNwYWNpbmciIHRleHRMZW5ndGg9IjU4LjUiIHg9IjEyMSIgeT0iMjA1Ljc4OTEiPiYjMTcxO2luY2x1ZGUmIzE4Nzs8L3RleHQ+PC9nPjwhLS1saW5rID8/Pz8/Pz8/PyA/Pz8/Pz8/Pz8/PyB0byA/Pz8/Pz8/Pz8/PyA/Pz8/Pz8gPz8/Pz8/Pz8/LS0+PGcgY2xhc3M9ImxpbmsiIGRhdGEtZW50aXR5LTE9IiYjMTA1MzsmIzEwNzI7JiMxMDg5OyYjMTA5MDsmIzEwODg7JiMxMDg2OyYjMTA4MDsmIzEwOTA7JiMxMTAwOyAmIzEwOTE7JiMxMDc0OyYjMTA3NzsmIzEwNzY7JiMxMDg2OyYjMTA4NDsmIzEwODM7JiMxMDc3OyYjMTA4NTsmIzEwODA7JiMxMTAzOyIgZGF0YS1lbnRpdHktMj0iJiMxMDU1OyYjMTA4ODsmIzEwODY7JiMxMDg5OyYjMTA4NDsmIzEwODY7JiMxMDkwOyYjMTA4ODsmIzEwNzc7JiMxMDkwOyYjMTEwMDsgJiMxMDg5OyYjMTA5MDsmIzEwNzI7JiMxMDkwOyYjMTA5MTsmIzEwODk7ICYjMTA5MTsmIzEwODk7JiMxMDkwOyYjMTA4ODsmIzEwODY7JiMxMDgxOyYjMTA4OTsmIzEwOTA7JiMxMDc0OyIgZGF0YS1zb3VyY2UtbGluZT0iMjMiIGRhdGEtdWlkPSJsbmsyMyIgaWQ9ImxpbmtfJiMxMDUzOyYjMTA3MjsmIzEwODk7JiMxMDkwOyYjMTA4ODsmIzEwODY7JiMxMDgwOyYjMTA5MDsmIzExMDA7ICYjMTA5MTsmIzEwNzQ7JiMxMDc3OyYjMTA3NjsmIzEwODY7JiMxMDg0OyYjMTA4MzsmIzEwNzc7JiMxMDg1OyYjMTA4MDsmIzExMDM7XyYjMTA1NTsmIzEwODg7JiMxMDg2OyYjMTA4OTsmIzEwODQ7JiMxMDg2OyYjMTA5MDsmIzEwODg7JiMxMDc3OyYjMTA5MDsmIzExMDA7ICYjMTA4OTsmIzEwOTA7JiMxMDcyOyYjMTA5MDsmIzEwOTE7JiMxMDg5OyAmIzEwOTE7JiMxMDg5OyYjMTA5MDsmIzEwODg7JiMxMDg2OyYjMTA4MTsmIzEwODk7JiMxMDkwOyYjMTA3NDsiPjxwYXRoIGQ9Ik0zMjUuNSwxMzkuMzkgQzMyNS41LDEyNC45OCAzMjUuNSwxMTEuNjUgMzI1LjUsOTYuMzEiIGZpbGw9Im5vbmUiIGlkPSImIzEwNTM7JiMxMDcyOyYjMTA4OTsmIzEwOTA7JiMxMDg4OyYjMTA4NjsmIzEwODA7JiMxMDkwOyYjMTEwMDsgJiMxMDkxOyYjMTA3NDsmIzEwNzc7JiMxMDc2OyYjMTA4NjsmIzEwODQ7JiMxMDgzOyYjMTA3NzsmIzEwODU7JiMxMDgwOyYjMTEwMzstdG8tJiMxMDU1OyYjMTA4ODsmIzEwODY7JiMxMDg5OyYjMTA4NDsmIzEwODY7JiMxMDkwOyYjMTA4ODsmIzEwNzc7JiMxMDkwOyYjMTEwMDsgJiMxMDg5OyYjMTA5MDsmIzEwNzI7JiMxMDkwOyYjMTA5MTsmIzEwODk7ICYjMTA5MTsmIzEwODk7JiMxMDkwOyYjMTA4ODsmIzEwODY7JiMxMDgxOyYjMTA4OTsmIzEwOTA7JiMxMDc0OyIgc3R5bGU9InN0cm9rZTojMTgxODE4O3N0cm9rZS13aWR0aDoxO3N0cm9rZS1kYXNoYXJyYXk6Ny4wLDcuMDsiLz48cG9seWdvbiBmaWxsPSIjMTgxODE4IiBwb2ludHM9IjMyNS41LDkwLjMxLDMyMS41LDk5LjMxLDMyNS41LDk1LjMxLDMyOS41LDk5LjMxLDMyNS41LDkwLjMxIiBzdHlsZT0ic3Ryb2tlOiMxODE4MTg7c3Ryb2tlLXdpZHRoOjE7Ii8+PHRleHQgZmlsbD0iIzAwMDAwMCIgZm9udC1mYW1pbHk9InNhbnMtc2VyaWYiIGZvbnQtc2l6ZT0iMTMiIGxlbmd0aEFkanVzdD0ic3BhY2luZyIgdGV4dExlbmd0aD0iNTIiIHg9IjI4OSIgeT0iMTIwLjUzOTEiPiYjMTcxO2V4dGVuZCYjMTg3OzwvdGV4dD48L2c+PCEtLVNSQz1bZlA1MUlpREc0OFJ0eG5IM0xzUkg3YTEyeGJCSVBtczQxQzhKMTE3SVRjYVdlMGpOS2dHTkFETFdJajl3WFBhUkVUQ3FLMzZRZjZ4VUlzUmNfLVBfQ3h3LUNjMTJZQnBmak82OTVzZE5VNjZXckRXck9HSnVYN2tRcVBvSUVoMzRGSFFLdTBWVjZycEo3M0Z2aHpFbGM1N0MySndMNGpXdWNGZVExaFoyNGRWcVc1bDBUdlFNMHhYSlNDQTd1SDBreTljOUNIRlZDMy00T3h4WmtYQ2I3NGtqMWphWmJzcFBJV3d1MFBmTE9pUUtqQjJLckZfWWtiQWx5OUVSaDNiSEs3ZzBxa0JPTlIyMk9XdHhwd3JNcmI5NHhBM2FLbTFQbkhFNmw4MnYzVjFzeDBpN1FiNS1qMlhKaGNROTFOX2pFOTctSVI5N05JVkNiNndMdWt4UnBnNWI2dXMyN1dqZXI5eXR6NFBLdnE3X0tGVC1vU1d2dF9lYnNCT05rRnhESDNqRUotRl94UWpsWkd1Y3RGUi0ybTAwXS0tPjwvZz48L3N2Zz4=;" parent="1" vertex="1">
            <mxGeometry x="160" y="70" width="551" height="422" as="geometry" />
          </mxCell>
        </UserObject>
      </root>
    </mxGraphModel>
  </diagram>
</mxfile>
